<svg id="eV4AXmDw8d91" xmlns="http://www.w3.org/2000/svg" xmlns:xlink="http://www.w3.org/1999/xlink" viewBox="0 0 300 100" shape-rendering="geometricPrecision" text-rendering="geometricPrecision" project-id="9fd02e5336ab48a7bc4921cf88ddfd98" export-id="cb700f3544c54b4aaa14703c4d2bbc22" cached="false"><polygon points="18,30 42,30 66,72 66,115" transform="translate(-11.822957 -22.5)"/><path d="M166.00537,7.5l21.12154,24.05462v24.62735L165.57046,31.33979v61.16022h-21.15424v-85h21.15424v0L166.00537,7.5Z" transform="translate(-8.662102 0.24184)"/><path d="M166.00537,7.5l21.12154,24.05462v24.62735L165.57046,31.33979v61.16022h-21.15424v-85h21.15424v0L166.00537,7.5Z" transform="matrix(-1 0 0 1 372.888094 -0.00001)"/><polygon points="18,30 42,30 66,72 66,115" transform="matrix(1 0 0 -1 59.193183 122.5)"/><polygon points="18,30 42,30 66,72 66,115" transform="matrix(-1 0 0 1 129.728207 -22.5)"/><path d="M362.62343,37.5c0,13.57671-11.0061,24.58281-24.58281,24.58281v-49.16562c13.57671,0,24.58281,11.0061,24.58281,24.58281Z" transform="matrix(1.2571 0 0 0.980325 -187.150572 -4.921205)" stroke-width="0"/></svg>
